<?xml version="1.0" encoding="UTF-8"?>
<svg version="1.1" xmlns="http://www.w3.org/2000/svg" width="97" height="97">
<path d="M0 0 C3.3265933 0.36274023 5.68245209 0.48936072 9 -0.125 C11.625 -0.5 11.625 -0.5 14.1875 0.625 C16.625 2.5 16.625 2.5 19.0625 5 C21.51272907 7.65053237 21.51272907 7.65053237 24.8125 9.0625 C27.98708148 10.68506387 28.33676334 11.31360931 29.625 14.5 C29.98052739 15.9484449 30.29230716 17.40823888 30.5625 18.875 C31.18349168 21.93488644 31.82116968 23.87054274 33.3125 26.6875 C34.94448363 30.18460779 34.73778259 31.84371434 33.625 35.5 C33.13257813 36.10328125 32.64015625 36.7065625 32.1328125 37.328125 C29.82643796 40.65026035 29.75719965 44.09769858 29.25 48.0390625 C28.625 50.5 28.625 50.5 25.625 52.5 C26.94986165 59.01390312 28.76755534 65.19270609 30.91796875 71.484375 C31.652478 74.617199 31.51384161 76.44283778 30.625 79.5 C29.408125 79.396875 28.19125 79.29375 26.9375 79.1875 C23.2409308 79.15501697 22.85831937 79.27779107 20 82 C19.21625 82.825 18.4325 83.65 17.625 84.5 C14.4765625 84.65625 14.4765625 84.65625 11.625 84.5 C5.88468109 70.8667426 5.88468109 70.8667426 6.625 64.5 C8.275 64.5 9.925 64.5 11.625 64.5 C13.275 67.47 14.925 70.44 16.625 73.5 C20.09 72.51 20.09 72.51 23.625 71.5 C21.645 66.88 19.665 62.26 17.625 57.5 C16.305 58.82 14.985 60.14 13.625 61.5 C11.046875 61.671875 11.046875 61.671875 8.375 61.25 C7.48296875 61.12109375 6.5909375 60.9921875 5.671875 60.859375 C4.99640625 60.74078125 4.3209375 60.6221875 3.625 60.5 C3.32207031 61.22703125 3.01914062 61.9540625 2.70703125 62.703125 C1.8268907 64.81546232 0.94247948 66.92602331 0.0546875 69.03515625 C-0.88879458 71.3216825 -1.80109096 73.62135915 -2.6796875 75.93359375 C-3.30230469 77.54427734 -3.30230469 77.54427734 -3.9375 79.1875 C-4.31003906 80.18136719 -4.68257812 81.17523438 -5.06640625 82.19921875 C-6.375 84.5 -6.375 84.5 -8.41796875 85.4140625 C-10.375 85.5 -10.375 85.5 -12.125 84.1875 C-13.375 82.5 -13.375 82.5 -13.375 80.5 C-17.43868679 79.72596442 -21.23925173 79.4015298 -25.375 79.5 C-26.63088164 75.96292312 -26.11858989 74.03284636 -24.7578125 70.5859375 C-24.39816406 69.66039063 -24.03851562 68.73484375 -23.66796875 67.78125 C-23.28253906 66.8221875 -22.89710937 65.863125 -22.5 64.875 C-22.12230469 63.90820312 -21.74460937 62.94140625 -21.35546875 61.9453125 C-18.64696631 55.04393263 -18.64696631 55.04393263 -17.375 52.5 C-18.15875 52.231875 -18.9425 51.96375 -19.75 51.6875 C-22.375 50.5 -22.375 50.5 -24.375 47.5 C-24.60058043 45.46977611 -24.8245558 43.43926295 -25.0234375 41.40625 C-25.24743284 39.34351921 -25.24743284 39.34351921 -26.9375 37.5625 C-29.29896204 34.17431534 -28.92379363 30.49319574 -28.375 26.5 C-27 24 -27 24 -25.375 21.5 C-24.81143163 19.20488823 -24.38201537 16.91782302 -24 14.5859375 C-22.64711224 10.07067459 -19.01649491 8.75621782 -15.078125 6.61328125 C-12.63781142 5.01812214 -11.15988306 2.77726459 -9.375 0.5 C-6.13256283 -0.73283875 -3.39919206 -0.41894804 0 0 Z M-6.375 21.5 C-9.61396351 25.04261634 -9.94824179 28.62845631 -9.80078125 33.27734375 C-9.06413463 37.12277425 -7.2154281 38.85774131 -4.375 41.5 C-0.30627256 42.85624248 3.37521964 43.16606438 7.625 42.5 C10.6985547 40.79459077 13.03079136 38.68841729 14.625 35.5 C15.19145111 30.85695813 15.04623314 27.37486883 13 23.125 C10.38240969 20.23187387 8.25397553 18.88982042 4.625 17.5 C0.30346537 17.5 -2.76358087 19.21276788 -6.375 21.5 Z M-12.375 57.5 C-13.19174796 59.24802146 -14.00323451 60.99850189 -14.8125 62.75 C-15.49119141 64.21179688 -15.49119141 64.21179688 -16.18359375 65.703125 C-17.52142203 68.64066581 -17.52142203 68.64066581 -18.375 72.5 C-13.92 73.49 -13.92 73.49 -9.375 74.5 C-8.70194982 72.89850114 -8.03677773 71.29368971 -7.375 69.6875 C-7.00375 68.79417969 -6.6325 67.90085937 -6.25 66.98046875 C-5.20866763 64.4668567 -5.20866763 64.4668567 -5.375 61.5 C-7.63716255 59.95220457 -9.92724566 58.72387717 -12.375 57.5 Z " fill="#FFFFFF" transform="translate(45.375,7.5)"/>
<path d="M0 0 C1.65 0.33 3.3 0.66 5 1 C5 4.96 5 8.92 5 13 C3.02 13.99 3.02 13.99 1 15 C-1 13 -1 13 -1.23046875 10.21484375 C-1.21628906 9.13332031 -1.20210937 8.05179688 -1.1875 6.9375 C-1.18105469 5.85339844 -1.17460938 4.76929688 -1.16796875 3.65234375 C-1 1 -1 1 0 0 Z " fill="#FFFFFF" transform="translate(46,31)"/>
</svg>
