<?xml version="1.0" encoding="UTF-8"?>
<svg version="1.1" xmlns="http://www.w3.org/2000/svg" width="98" height="97">
<path d="M0 0 C1.85202026 -0.00945648 1.85202026 -0.00945648 3.74145508 -0.019104 C5.09456525 -0.01552432 6.44767412 -0.01142238 7.80078125 -0.00683594 C9.18318754 -0.00818268 10.56559338 -0.01012329 11.94799805 -0.01263428 C14.84656276 -0.01558511 17.74500428 -0.0112893 20.64355469 -0.00195312 C24.36288762 0.00944152 28.08193193 0.00288181 31.80125427 -0.00909805 C34.65623152 -0.01631782 37.5111401 -0.01402822 40.36611938 -0.00884247 C41.73768142 -0.00750629 43.10924964 -0.0091526 44.48080444 -0.01380157 C46.39605595 -0.01886842 48.31132926 -0.00977925 50.2265625 0 C51.31751221 0.00159119 52.40846191 0.00318237 53.5324707 0.00482178 C56.11328125 0.25878906 56.11328125 0.25878906 58.11328125 2.25878906 C57.73828125 5.38378906 57.73828125 5.38378906 57.11328125 8.25878906 C56.12328125 8.25878906 55.13328125 8.25878906 54.11328125 8.25878906 C54.11328125 13.53878906 54.11328125 18.81878906 54.11328125 24.25878906 C46.23828125 25.38378906 46.23828125 25.38378906 42.11328125 24.25878906 C42.17515625 25.14566406 42.23703125 26.03253906 42.30078125 26.94628906 C42.088975 30.68819947 41.06538306 32.13542616 39.11328125 35.25878906 C37.45123968 40.75631118 38.54093374 45.85497405 40.11328125 51.25878906 C41.62790858 54.09226336 41.62790858 54.09226336 43.11328125 56.25878906 C43.11328125 57.24878906 43.11328125 58.23878906 43.11328125 59.25878906 C40.14328125 60.24878906 37.17328125 61.23878906 34.11328125 62.25878906 C34.11328125 58.29878906 34.11328125 54.33878906 34.11328125 50.25878906 C28.17328125 50.25878906 22.23328125 50.25878906 16.11328125 50.25878906 C16.11328125 55.20878906 16.11328125 60.15878906 16.11328125 65.25878906 C9.51328125 65.25878906 2.91328125 65.25878906 -3.88671875 65.25878906 C-3.88671875 46.44878906 -3.88671875 27.63878906 -3.88671875 8.25878906 C-4.87671875 8.25878906 -5.86671875 8.25878906 -6.88671875 8.25878906 C-7.51171875 5.38378906 -7.51171875 5.38378906 -7.88671875 2.25878906 C-5.1832996 -0.44463008 -3.7808783 0.00551454 0 0 Z M3.11328125 12.25878906 C3.11328125 13.90878906 3.11328125 15.55878906 3.11328125 17.25878906 C4.76328125 17.25878906 6.41328125 17.25878906 8.11328125 17.25878906 C8.11328125 15.60878906 8.11328125 13.95878906 8.11328125 12.25878906 C6.46328125 12.25878906 4.81328125 12.25878906 3.11328125 12.25878906 Z M16.11328125 12.25878906 C16.11328125 13.90878906 16.11328125 15.55878906 16.11328125 17.25878906 C17.76328125 17.25878906 19.41328125 17.25878906 21.11328125 17.25878906 C21.11328125 15.60878906 21.11328125 13.95878906 21.11328125 12.25878906 C19.46328125 12.25878906 17.81328125 12.25878906 16.11328125 12.25878906 Z M29.11328125 12.25878906 C29.11328125 13.90878906 29.11328125 15.55878906 29.11328125 17.25878906 C30.76328125 17.25878906 32.41328125 17.25878906 34.11328125 17.25878906 C34.11328125 15.60878906 34.11328125 13.95878906 34.11328125 12.25878906 C32.46328125 12.25878906 30.81328125 12.25878906 29.11328125 12.25878906 Z M42.11328125 12.25878906 C42.11328125 13.90878906 42.11328125 15.55878906 42.11328125 17.25878906 C43.76328125 17.25878906 45.41328125 17.25878906 47.11328125 17.25878906 C47.11328125 15.60878906 47.11328125 13.95878906 47.11328125 12.25878906 C45.46328125 12.25878906 43.81328125 12.25878906 42.11328125 12.25878906 Z M3.11328125 24.25878906 C3.11328125 25.90878906 3.11328125 27.55878906 3.11328125 29.25878906 C4.76328125 29.25878906 6.41328125 29.25878906 8.11328125 29.25878906 C8.11328125 27.60878906 8.11328125 25.95878906 8.11328125 24.25878906 C6.46328125 24.25878906 4.81328125 24.25878906 3.11328125 24.25878906 Z M16.11328125 24.25878906 C16.11328125 25.90878906 16.11328125 27.55878906 16.11328125 29.25878906 C17.76328125 29.25878906 19.41328125 29.25878906 21.11328125 29.25878906 C21.11328125 27.60878906 21.11328125 25.95878906 21.11328125 24.25878906 C19.46328125 24.25878906 17.81328125 24.25878906 16.11328125 24.25878906 Z M29.11328125 24.25878906 C29.11328125 25.90878906 29.11328125 27.55878906 29.11328125 29.25878906 C30.76328125 29.25878906 32.41328125 29.25878906 34.11328125 29.25878906 C34.11328125 27.60878906 34.11328125 25.95878906 34.11328125 24.25878906 C32.46328125 24.25878906 30.81328125 24.25878906 29.11328125 24.25878906 Z M3.11328125 37.25878906 C3.11328125 38.57878906 3.11328125 39.89878906 3.11328125 41.25878906 C4.76328125 41.25878906 6.41328125 41.25878906 8.11328125 41.25878906 C8.11328125 39.93878906 8.11328125 38.61878906 8.11328125 37.25878906 C6.46328125 37.25878906 4.81328125 37.25878906 3.11328125 37.25878906 Z M16.11328125 37.25878906 C16.11328125 38.57878906 16.11328125 39.89878906 16.11328125 41.25878906 C17.76328125 41.25878906 19.41328125 41.25878906 21.11328125 41.25878906 C21.11328125 39.93878906 21.11328125 38.61878906 21.11328125 37.25878906 C19.46328125 37.25878906 17.81328125 37.25878906 16.11328125 37.25878906 Z M29.11328125 37.25878906 C29.11328125 38.57878906 29.11328125 39.89878906 29.11328125 41.25878906 C30.76328125 41.25878906 32.41328125 41.25878906 34.11328125 41.25878906 C34.11328125 39.93878906 34.11328125 38.61878906 34.11328125 37.25878906 C32.46328125 37.25878906 30.81328125 37.25878906 29.11328125 37.25878906 Z M3.11328125 50.25878906 C3.11328125 51.90878906 3.11328125 53.55878906 3.11328125 55.25878906 C4.76328125 55.25878906 6.41328125 55.25878906 8.11328125 55.25878906 C8.11328125 53.60878906 8.11328125 51.95878906 8.11328125 50.25878906 C6.46328125 50.25878906 4.81328125 50.25878906 3.11328125 50.25878906 Z " fill="#FFFFFF" transform="translate(23.88671875,21.7412109375)"/>
<path d="M0 0 C3.79731171 1.78370592 4.85152199 3.04349976 6.55859375 7.00390625 C7.40145608 11.95919578 6.62708572 16.65718449 4.99609375 21.37890625 C2.87109375 24.25390625 2.87109375 24.25390625 0.99609375 26.37890625 C0.99609375 27.69890625 0.99609375 29.01890625 0.99609375 30.37890625 C1.68316406 30.6934375 2.37023437 31.00796875 3.078125 31.33203125 C3.97917969 31.76 4.88023438 32.18796875 5.80859375 32.62890625 C7.14857422 33.25539063 7.14857422 33.25539063 8.515625 33.89453125 C11.22016075 35.51299359 12.514297 36.60238344 13.99609375 39.37890625 C13.99609375 41.35890625 13.99609375 43.33890625 13.99609375 45.37890625 C1.12609375 45.37890625 -11.74390625 45.37890625 -25.00390625 45.37890625 C-25.00390625 39.37890625 -25.00390625 39.37890625 -23.06640625 36.75390625 C-19.29922975 33.83242244 -15.42308644 32.10229025 -11.00390625 30.37890625 C-11.390502 27.09284234 -11.93709953 25.46450236 -14.00390625 22.81640625 C-16.8337332 17.95264118 -17.41829949 12.97698221 -17.00390625 7.37890625 C-13.24483281 -0.07588546 -8.13647536 -2.52183155 0 0 Z " fill="#FFFFFF" transform="translate(83.00390625,51.62109375)"/>
<path d="M0 0 C15.18 0 30.36 0 46 0 C46 1.98 46 3.96 46 6 C44.45498549 7.54501451 43.0133978 7.12719131 40.86328125 7.12939453 C39.54686646 7.13412277 39.54686646 7.13412277 38.20385742 7.13894653 C37.24970947 7.1369223 36.29556152 7.13489807 35.3125 7.1328125 C33.85324097 7.13424759 33.85324097 7.13424759 32.36450195 7.13571167 C30.303222 7.13639358 28.24193992 7.13453853 26.18066406 7.13037109 C23.01362312 7.125023 19.846724 7.13031572 16.6796875 7.13671875 C14.68229135 7.13605797 12.68489529 7.13477681 10.6875 7.1328125 C9.73335205 7.13483673 8.7792041 7.13686096 7.79614258 7.13894653 C6.91853271 7.13579437 6.04092285 7.13264221 5.13671875 7.12939453 C4.36030029 7.12859894 3.58388184 7.12780334 2.78393555 7.12698364 C1 7 1 7 0 6 C0 4.02 0 2.04 0 0 Z " fill="#FFFFFF" transform="translate(26,10)"/>
</svg>
