<?xml version="1.0" encoding="UTF-8"?>
<svg version="1.1" xmlns="http://www.w3.org/2000/svg" width="97" height="97">
<path d="M0 0 C8.4658899 5.6084302 15.98024809 13.27480589 18.86328125 23.234375 C18.86328125 25.214375 18.86328125 27.194375 18.86328125 29.234375 C25.13328125 29.234375 31.40328125 29.234375 37.86328125 29.234375 C37.86328125 30.884375 37.86328125 32.534375 37.86328125 34.234375 C31.59328125 34.234375 25.32328125 34.234375 18.86328125 34.234375 C18.53328125 37.204375 18.20328125 40.174375 17.86328125 43.234375 C16.671875 46.30078125 16.671875 46.30078125 15.30078125 48.796875 C14.61822266 50.06724609 14.61822266 50.06724609 13.921875 51.36328125 C13.39787109 52.28947266 13.39787109 52.28947266 12.86328125 53.234375 C13.9162439 54.24806152 13.9162439 54.24806152 14.99047852 55.28222656 C17.58784061 57.78919191 20.16870337 60.31258568 22.74487305 62.84130859 C23.86282357 63.93409102 24.98521709 65.02234704 26.11206055 66.10595703 C27.72980148 67.66314844 29.3309384 69.23584545 30.9296875 70.8125 C31.43794571 71.29495178 31.94620392 71.77740356 32.46986389 72.2744751 C33.86547852 73.66894531 33.86547852 73.66894531 35.86328125 76.234375 C35.77387898 79.36658516 34.9476788 80.14230494 32.80078125 82.484375 C31.84171875 83.350625 31.84171875 83.350625 30.86328125 84.234375 C26.99999498 82.6496392 24.57451202 80.17480613 21.66015625 77.2265625 C21.17750305 76.74107941 20.69484985 76.25559631 20.1975708 75.75540161 C18.66469563 74.21137634 17.13894121 72.66052676 15.61328125 71.109375 C14.57207764 70.05813491 13.53041584 69.00734843 12.48828125 67.95703125 C9.94128661 65.38804496 7.40062948 62.81289339 4.86328125 60.234375 C3.95320313 60.88277344 3.043125 61.53117187 2.10546875 62.19921875 C-3.03934091 65.12599207 -8.22844854 64.85748881 -14.01171875 64.796875 C-15.04941406 64.82072266 -16.08710937 64.84457031 -17.15625 64.86914062 C-26.23729493 64.85196336 -32.06869425 61.99762743 -38.88671875 56.171875 C-45.94584475 48.48746511 -47.84556478 39.51641602 -47.65820312 29.39331055 C-47.16233615 19.40947986 -43.55251732 11.9883173 -36.13671875 5.234375 C-26.5611818 -2.04451479 -11.38843179 -5.35332049 0 0 Z M-24.13671875 19.234375 C-24.46671875 19.894375 -24.79671875 20.554375 -25.13671875 21.234375 C-24.12609375 22.08 -23.11546875 22.925625 -22.07421875 23.796875 C-15.07676295 29.89592327 -8.65515655 36.6331836 -2.13671875 43.234375 C1.60343584 41.96425424 3.67997879 40.66072105 6.23828125 37.671875 C8.68198834 35.08315672 10.2372978 33.77200613 13.80078125 33.296875 C14.81140625 33.27625 15.82203125 33.255625 16.86328125 33.234375 C16.86328125 32.244375 16.86328125 31.254375 16.86328125 30.234375 C14.07922542 29.81012201 14.07922542 29.81012201 10.86328125 30.234375 C8.12807218 32.43162691 8.12807218 32.43162691 5.73828125 35.296875 C3.23046875 38.14453125 3.23046875 38.14453125 0.86328125 40.234375 C-3.17017201 40.0387363 -5.16735266 37.53508055 -7.8671875 34.76171875 C-9.19459961 33.41303711 -9.19459961 33.41303711 -10.54882812 32.03710938 C-11.46470703 31.09158203 -12.38058594 30.14605469 -13.32421875 29.171875 C-15.14754576 27.30251552 -16.97566782 25.43802592 -18.8046875 23.57421875 C-19.61188232 22.74269287 -20.41907715 21.91116699 -21.25073242 21.05444336 C-22.81981526 19.11863834 -22.81981526 19.11863834 -24.13671875 19.234375 Z M-27.13671875 22.234375 C-28.82760097 24.21394442 -30.49502347 26.21382696 -32.13671875 28.234375 C-29.51484381 27.18562502 -28.34300514 26.58506187 -26.88671875 24.109375 C-26.63921875 23.490625 -26.39171875 22.871875 -26.13671875 22.234375 C-26.46671875 22.234375 -26.79671875 22.234375 -27.13671875 22.234375 Z M-42.13671875 30.234375 C-42.13671875 31.224375 -42.13671875 32.214375 -42.13671875 33.234375 C-39.22037746 33.4845907 -39.22037746 33.4845907 -36.13671875 33.234375 C-35.47671875 32.244375 -34.81671875 31.254375 -34.13671875 30.234375 C-36.77671875 30.234375 -39.41671875 30.234375 -42.13671875 30.234375 Z " fill="#FFFFFF" transform="translate(53.13671875,6.765625)"/>
</svg>
