<?xml version="1.0" encoding="UTF-8"?>
<svg version="1.1" xmlns="http://www.w3.org/2000/svg" width="97" height="97">
<path d="M0 0 C2.63605544 1.24324788 5.20786724 2.57712209 7.78320312 3.94165039 C9.73266107 4.94761908 11.68322137 5.95145383 13.63476562 6.95336914 C14.64571289 7.47463379 15.65666016 7.99589844 16.69824219 8.53295898 C22.96822529 11.71269444 29.33752664 14.68738053 35.69506836 17.68701172 C36.61747314 18.12424561 37.53987793 18.56147949 38.49023438 19.01196289 C39.30854736 19.39755371 40.12686035 19.78314453 40.9699707 20.18041992 C42.84570312 21.12915039 42.84570312 21.12915039 43.84570312 22.12915039 C43.88634145 23.79532154 43.88842413 25.46303134 43.84570312 27.12915039 C42.14377928 28.11941569 40.43382301 29.09588245 38.72070312 30.06665039 C37.29371094 30.88456055 37.29371094 30.88456055 35.83789062 31.71899414 C32.7831388 33.15863566 30.18435926 33.73782423 26.84570312 34.12915039 C26.68714844 33.51426758 26.52859375 32.89938477 26.36523438 32.26586914 C24.93156964 27.10871766 24.93156964 27.10871766 21.53320312 23.12915039 C7.07470152 17.74924282 -16.85285359 18.1204962 -31.33007812 23.18383789 C-34.12699101 24.63320174 -35.1082492 26.20021691 -36.15429688 29.12915039 C-36.86100415 31.8217003 -36.86100415 31.8217003 -37.15429688 34.12915039 C-38.47429688 33.79915039 -39.79429688 33.46915039 -41.15429688 33.12915039 C-41.15429688 41.04915039 -41.15429688 48.96915039 -41.15429688 57.12915039 C-39.83429687 57.78915039 -38.51429687 58.44915039 -37.15429688 59.12915039 C-36.60965287 65.2291633 -37.47050294 68.51181451 -40.76757812 73.66040039 C-41.22519531 74.14508789 -41.6828125 74.62977539 -42.15429688 75.12915039 C-43.14429688 75.12915039 -44.13429688 75.12915039 -45.15429688 75.12915039 C-49.18768738 69.33115155 -49.66034672 65.11544958 -49.15429688 58.12915039 C-48.16429687 57.63415039 -48.16429687 57.63415039 -47.15429688 57.12915039 C-46.82429688 48.21915039 -46.49429688 39.30915039 -46.15429688 30.12915039 C-47.47429688 29.79915039 -48.79429688 29.46915039 -50.15429688 29.12915039 C-51.14429688 28.46915039 -52.13429687 27.80915039 -53.15429688 27.12915039 C-53.61523438 24.69165039 -53.61523438 24.69165039 -53.15429688 22.12915039 C-51.31835938 20.50415039 -51.31835938 20.50415039 -48.77929688 19.12915039 C-47.4103125 18.37698242 -47.4103125 18.37698242 -46.01367188 17.60961914 C-45.07007813 17.12106445 -44.12648438 16.63250977 -43.15429688 16.12915039 C-42.29320312 15.6715332 -41.43210937 15.21391602 -40.54492188 14.74243164 C-36.88453313 12.8497151 -33.27104989 11.15787217 -29.38867188 9.77758789 C-24.06463883 7.81771018 -19.24323361 4.99902512 -14.33398438 2.18188477 C-9.29791454 -0.59616463 -5.67113322 -2.29249005 0 0 Z " fill="#FFFFFF" transform="translate(53.154296875,13.870849609375)"/>
<path d="M0 0 C1.2161776 -0.00642769 1.2161776 -0.00642769 2.45692444 -0.01298523 C4.16031974 -0.01869125 5.8637394 -0.01925654 7.56713867 -0.01489258 C10.15000581 -0.01173117 12.73172695 -0.03524289 15.31445312 -0.06054688 C16.98046733 -0.06282037 18.64648456 -0.06352313 20.3125 -0.0625 C21.45198341 -0.07631462 21.45198341 -0.07631462 22.61448669 -0.09040833 C27.80849575 -0.04634874 35.33700387 0.41512887 39.22265625 4.30078125 C39.29509678 6.32042324 39.30642813 8.34245249 39.28515625 10.36328125 C39.27613281 11.46800781 39.26710937 12.57273437 39.2578125 13.7109375 C39.24621094 14.56558594 39.23460937 15.42023437 39.22265625 16.30078125 C38.61752197 16.16438232 38.0123877 16.0279834 37.38891602 15.88745117 C31.29350844 14.5813343 25.38408961 13.86600888 19.16015625 13.61328125 C18.25547607 13.57420654 17.3507959 13.53513184 16.41870117 13.49487305 C4.5925656 13.06832265 -7.24952917 13.38342277 -18.77734375 16.30078125 C-18.83123462 14.34274618 -18.87008592 12.38429216 -18.90234375 10.42578125 C-18.92554687 9.33523437 -18.94875 8.2446875 -18.97265625 7.12109375 C-18.77734375 4.30078125 -18.77734375 4.30078125 -16.77734375 2.30078125 C-11.08900568 0.54135332 -5.92762013 -0.00709285 0 0 Z " fill="#FFFFFF" transform="translate(37.77734375,35.69921875)"/>
<path d="M0 0 C1.22042244 -0.0049926 1.22042244 -0.0049926 2.46549988 -0.01008606 C4.18085163 -0.01512949 5.89621311 -0.01749519 7.61157227 -0.01733398 C10.21191902 -0.01951569 12.81183777 -0.0376857 15.41210938 -0.05664062 C17.08723815 -0.0595762 18.76236892 -0.0615599 20.4375 -0.0625 C21.20342972 -0.06968552 21.96935944 -0.07687103 22.75849915 -0.08427429 C28.19748308 -0.0616838 33.15840297 0.80172356 38.41796875 2.16796875 C38.91296875 4.64296875 38.91296875 4.64296875 39.41796875 7.16796875 C33.44518541 11.09294066 28.20555385 11.33143975 21.1875 11.37109375 C20.39703781 11.37679382 19.60657562 11.3824939 18.79216003 11.3883667 C17.12211431 11.39778763 15.45205025 11.40433909 13.78198242 11.40820312 C11.25600782 11.417871 8.73086082 11.44890571 6.20507812 11.48046875 C-2.14485006 11.53374969 -9.7492214 11.49105493 -17.58203125 8.16796875 C-17.91203125 6.51796875 -18.24203125 4.86796875 -18.58203125 3.16796875 C-12.80268599 -0.1662689 -6.48011835 0.00934094 0 0 Z " fill="#FFFFFF" transform="translate(37.58203125,50.83203125)"/>
</svg>
