<?xml version="1.0" encoding="UTF-8"?>
<svg version="1.1" xmlns="http://www.w3.org/2000/svg" width="97" height="97">
<path d="M0 0 C1.578125 1.4375 1.578125 1.4375 3 3 C3.99 3.45375 4.98 3.9075 6 4.375 C9.58880355 6.31893526 10.35965744 7.28284947 12 11 C12.4310162 14.36222259 12.41893561 17.67701726 12.375 21.0625 C12.38660156 21.96033203 12.39820313 22.85816406 12.41015625 23.78320312 C12.37547381 31.55785016 12.37547381 31.55785016 9 35 C8.02353533 36.83655509 8.02353533 36.83655509 7.3125 38.75 C6.93544922 39.67039062 6.93544922 39.67039062 6.55078125 40.609375 C5.74524457 44.10574698 5.92126022 47.41546528 6 51 C7.07378906 51.50789063 8.14757813 52.01578125 9.25390625 52.5390625 C27.05003571 61.10007142 27.05003571 61.10007142 30 67 C30 69.31 30 71.62 30 74 C6.9 74 -16.2 74 -40 74 C-39 65 -39 65 -36.4375 61.9375 C-30.29350399 57.335984 -22.91019054 54.26844546 -16 51 C-15.78050647 45.72652731 -15.83752273 42.28370518 -18.4375 37.5625 C-18.88996094 36.71816406 -19.34242187 35.87382813 -19.80859375 35.00390625 C-20.84570413 33.07215037 -20.84570413 33.07215037 -22 32 C-22 30.10542401 -21.99482431 28.21067917 -21.9609375 26.31640625 C-22.00052396 23.96892915 -22.28263402 21.75842285 -22.625 19.4375 C-23.12525192 15.16328875 -22.70282839 12.0248671 -21 8 C-15.80497809 1.46911532 -8.27175554 -1.63511447 0 0 Z " fill="#FFFFFF" transform="translate(53,10)"/>
<path d="M0 0 C2.64 0 5.28 0 8 0 C8.33 0.66 8.66 1.32 9 2 C9.78375 2.28875 10.5675 2.5775 11.375 2.875 C14.52214228 4.22377526 15.43846951 4.95501554 17 8 C18.95313604 16.6844799 18.14632063 24.45790499 13.85546875 32.203125 C12.74491017 34.53580512 12.682058 36.45646397 13 39 C18.23498331 41.71633123 18.23498331 41.71633123 23.6875 43.9375 C27.04019188 45.477926 28.78768132 47.02917205 31 50 C31.4091175 53.04792541 31.29946489 55.94545814 31 59 C26.61622413 59.34208656 22.37232772 59.53771484 18 59 C15.4375 56.1875 15.4375 56.1875 14 53 C12.68441297 51.97676564 11.35622245 50.96873032 10 50 C10 49.34 10 48.68 10 48 C9.43152344 47.81824219 8.86304687 47.63648438 8.27734375 47.44921875 C3.39298997 45.85915366 -1.31029027 44.09540222 -6 42 C-6.68897156 33.73234134 -4.52006379 28.78009568 0 22 C0.27543845 19.57954562 0.27543845 19.57954562 0.1953125 16.89453125 C0.18886719 15.91162109 0.18242188 14.92871094 0.17578125 13.91601562 C0.15902344 12.89185547 0.14226562 11.86769531 0.125 10.8125 C0.11597656 9.77673828 0.10695313 8.74097656 0.09765625 7.67382812 C0.0740786 5.11565315 0.0411703 2.55794252 0 0 Z " fill="#FFFFFF" transform="translate(66,19)"/>
<path d="M0 0 C-0.08378906 0.56847656 -0.16757812 1.13695313 -0.25390625 1.72265625 C-0.9168059 6.74894598 -0.85494952 10.96529729 0 16 C-0.05027344 16.94875 -0.10054687 17.8975 -0.15234375 18.875 C0.02698043 22.55344468 1.03120127 24.23625198 3 27.3125 C6.0879327 32.60402787 6.59505931 35.95023036 6 42 C4.90300781 42.53109375 3.80601563 43.0621875 2.67578125 43.609375 C1.22119474 44.32259161 -0.2332235 45.03615148 -1.6875 45.75 C-2.40873047 46.09804687 -3.12996094 46.44609375 -3.87304688 46.8046875 C-11.32905007 50.41915932 -11.32905007 50.41915932 -16.42578125 56.73046875 C-17.20501953 57.85388672 -17.20501953 57.85388672 -18 59 C-20.91796875 59.48828125 -20.91796875 59.48828125 -24.1875 59.3125 C-25.27417969 59.26738281 -26.36085938 59.22226563 -27.48046875 59.17578125 C-28.72763672 59.08876953 -28.72763672 59.08876953 -30 59 C-30.39919951 54.36928574 -30.54397882 51.97139075 -28.25 47.875 C-24.18705769 43.56330612 -18.31348051 41.38979506 -13 39 C-13.43621341 34.09916675 -13.43621341 34.09916675 -15.484375 29.71875 C-18.65463372 24.03189416 -18.83496006 15.70478968 -17.41015625 9.3828125 C-14.11679878 1.89148435 -8.04339341 -0.65660354 0 0 Z " fill="#FFFFFF" transform="translate(30,19)"/>
</svg>
