<?xml version="1.0" encoding="UTF-8"?>
<svg version="1.1" xmlns="http://www.w3.org/2000/svg" width="97" height="97">
<path d="M0 0 C2.5 1.375 2.5 1.375 4 4 C4.53598322 7.41130986 4.76728666 10.62055361 4 14 C1.96679688 15.64624023 1.96679688 15.64624023 0 17 C0.79265259 17.41511841 0.79265259 17.41511841 1.60131836 17.83862305 C4.0473116 19.12044195 6.49240784 20.40396316 8.9375 21.6875 C9.76830078 22.12255859 10.59910156 22.55761719 11.45507812 23.00585938 C17.01469787 25.9262822 22.52442654 28.9249047 28 32 C27.25 38.75 27.25 38.75 25 41 C20.36692146 40.73430374 16.75466302 38.33596552 12.875 36 C8.11589003 33.1363134 8.11589003 33.1363134 3 31 C2.39526855 32.55726807 2.39526855 32.55726807 1.77832031 34.14599609 C0.26547987 38.04137503 -1.24802506 41.93649552 -2.76171875 45.83154297 C-3.41358944 47.5092082 -4.06528601 49.1869411 -4.71679688 50.86474609 C-5.03197266 51.67637207 -5.34714844 52.48799805 -5.671875 53.32421875 C-5.98314331 54.12627747 -6.29441162 54.92833618 -6.6151123 55.75469971 C-7.23321952 57.34264329 -7.85404365 58.92953214 -8.47766113 60.51531982 C-9.76185348 63.78315095 -11.01524055 67.04377524 -12.16992188 70.36035156 C-12.65041992 71.71725098 -12.65041992 71.71725098 -13.140625 73.1015625 C-13.38844727 73.85002441 -13.63626953 74.59848633 -13.89160156 75.36962891 C-15 77 -15 77 -17.44042969 77.77099609 C-20.18554662 78.01660079 -22.34114979 77.68370434 -25 77 C-23.36231563 67.99273599 -20.13020303 59.57360642 -17 51 C-17.495 50.505 -17.495 50.505 -18 50 C-18.66 52.97 -19.32 55.94 -20 59 C-23.71888239 58.49287967 -26.73454239 57.88391785 -30 56 C-29.37658609 52.4617797 -28.44678155 49.26706972 -27.15234375 45.91796875 C-26.79462891 44.98662109 -26.43691406 44.05527344 -26.06835938 43.09570312 C-25.50858398 41.65614258 -25.50858398 41.65614258 -24.9375 40.1875 C-24.56044922 39.20845703 -24.18339844 38.22941406 -23.79492188 37.22070312 C-22.86684405 34.8123999 -21.93509884 32.40558386 -21 30 C-23.75402208 32.56887774 -25.6573496 34.83717771 -27.25 38.25 C-27.58515625 38.95640625 -27.9203125 39.6628125 -28.265625 40.390625 C-28.50796875 40.92171875 -28.7503125 41.4528125 -29 42 C-32.71888239 41.49287967 -35.73454239 40.88391785 -39 39 C-37.28044812 29.06481138 -32.21671676 23.53448284 -24.09375 17.75390625 C-19.84505164 15.34523761 -16.84166163 14.91930564 -12 15 C-12.350625 14.29875 -12.70125 13.5975 -13.0625 12.875 C-14.21021586 9.35533802 -14.12394239 7.52168615 -13 4 C-9.03082692 -0.57056294 -5.706797 -0.72467263 0 0 Z " fill="#FFFFFF" transform="translate(57,8)"/>
<path d="M0 0 C2.125 0.4140625 2.125 0.4140625 4.625 1.9765625 C6.64355692 5.25671749 7.125 7.5618068 7.125 11.4140625 C5.35858828 14.21595696 4.09450178 15.92931161 1.125 17.4140625 C-1.80907542 17.69800528 -4.02546384 17.90400251 -6.875 17.4140625 C-10.13604325 14.72370182 -10.7784571 13.08986277 -11.375 8.9140625 C-10.33089766 1.60534609 -7.00442312 -0.43777644 0 0 Z " fill="#FFFFFF" transform="translate(22.875,71.5859375)"/>
</svg>
